<svg width="27.8" height="503.4" version="1.1" viewBox="30.405 25.885 27.8 503.4" xmlns="http://www.w3.org/2000/svg" xmlns:xlink="http://www.w3.org/1999/xlink"><defs></defs><g transform="translate(-418.2 -57.415)"><g stroke="#fff" stroke-width="1.2"><path d="m462.5 86v60" fill="none" stroke-linecap="round" stroke-linejoin="round" vector-effect="non-scaling-stroke"/><path d="m462.5 155v83" fill="none" stroke-linecap="round" stroke-linejoin="round" vector-effect="non-scaling-stroke"/><path d="m462.5 247v83" fill="none" stroke-linecap="round" stroke-linejoin="round" vector-effect="non-scaling-stroke"/><path d="m462.5 339v83" fill="none" stroke-linecap="round" stroke-linejoin="round" vector-effect="non-scaling-stroke"/><path d="m462.5 431v80" fill="none" stroke-linecap="round" stroke-linejoin="round" vector-effect="non-scaling-stroke"/><path d="m462.5 520v64" fill="none" stroke-linecap="round" stroke-linejoin="round" vector-effect="non-scaling-stroke"/><circle cx="462.5" cy="86" r="2.1" vector-effect="non-scaling-stroke"/><circle cx="462.5" cy="584" r="2.1" vector-effect="non-scaling-stroke"/><path d="m462.5 111h-3.5l-4 4v6h-3.5" fill="none" stroke-linecap="round" stroke-linejoin="round" vector-effect="non-scaling-stroke"/><circle cx="451.5" cy="121" r="2.3" vector-effect="non-scaling-stroke"/><path d="m462.5 174h3.5l4 4v6h3.5" fill="none" stroke-linecap="round" stroke-linejoin="round" vector-effect="non-scaling-stroke"/><circle cx="473.5" cy="184" r="2.3" vector-effect="non-scaling-stroke"/><path d="m462.5 215h-3.5l-4 4v6h-3.5" fill="none" stroke-linecap="round" stroke-linejoin="round" vector-effect="non-scaling-stroke"/><circle cx="451.5" cy="225" r="2.3" vector-effect="non-scaling-stroke"/><path d="m462.5 278h3.5l4 4v6h3.5" fill="none" stroke-linecap="round" stroke-linejoin="round" vector-effect="non-scaling-stroke"/><circle cx="473.5" cy="288" r="2.3" vector-effect="non-scaling-stroke"/><path d="m462.5 319h-3.5l-4 4v6h-3.5" fill="none" stroke-linecap="round" stroke-linejoin="round" vector-effect="non-scaling-stroke"/><circle cx="451.5" cy="329" r="2.3" vector-effect="non-scaling-stroke"/><path d="m462.5 382h3.5l4 4v6h3.5" fill="none" stroke-linecap="round" stroke-linejoin="round" vector-effect="non-scaling-stroke"/><circle cx="473.5" cy="392" r="2.3" vector-effect="non-scaling-stroke"/><path d="m462.5 465h-3.5l-4 4v6h-3.5" fill="none" stroke-linecap="round" stroke-linejoin="round" vector-effect="non-scaling-stroke"/><circle cx="451.5" cy="475" r="2.3" vector-effect="non-scaling-stroke"/><path d="m462.5 548h3.5l4 4v6h3.5" fill="none" stroke-linecap="round" stroke-linejoin="round" vector-effect="non-scaling-stroke"/><circle cx="473.5" cy="558" r="2.3" vector-effect="non-scaling-stroke"/><path d="m462.5 137h3l3.5 3.5v4h2" fill="none" stroke-linecap="round" stroke-linejoin="round" vector-effect="non-scaling-stroke"/><circle cx="471" cy="144.5" r="1.55" vector-effect="non-scaling-stroke"/><path d="m462.5 257h-3l-3.5 3.5v4h-2" fill="none" stroke-linecap="round" stroke-linejoin="round" vector-effect="non-scaling-stroke"/><circle cx="454" cy="264.5" r="1.55" vector-effect="non-scaling-stroke"/><path d="m462.5 361h3l3.5 3.5v4h2" fill="none" stroke-linecap="round" stroke-linejoin="round" vector-effect="non-scaling-stroke"/><circle cx="471" cy="368.5" r="1.55" vector-effect="non-scaling-stroke"/><path d="m462.5 489h-3l-3.5 3.5v4h-2" fill="none" stroke-linecap="round" stroke-linejoin="round" vector-effect="non-scaling-stroke"/><circle cx="454" cy="496.5" r="1.55" vector-effect="non-scaling-stroke"/><circle cx="457.5" cy="151" r="1.25" vector-effect="non-scaling-stroke"/><circle cx="467.5" cy="242" r="1.25" vector-effect="non-scaling-stroke"/><circle cx="457.5" cy="334" r="1.25" vector-effect="non-scaling-stroke"/><circle cx="467.5" cy="426" r="1.25" vector-effect="non-scaling-stroke"/><circle cx="457.5" cy="515" r="1.25" vector-effect="non-scaling-stroke"/></g></g></svg>
